<svg width="24" height="24" viewBox="0 0 24 24" fill="none" xmlns="http://www.w3.org/2000/svg">
<g clip-path="url(#clip0_490_1301)">
<rect x="2" y="2" width="20" height="20" rx="10" fill="white"/>
<g clip-path="url(#clip1_490_1301)">
<path d="M16.6155 11.3094C15.0528 10.2373 13.0539 10.6734 11.9999 12.2725C11.1277 13.6172 9.80118 13.7808 9.2742 13.7808C7.60241 13.7808 6.45759 12.5996 6.11233 11.3821C6.11233 11.3639 6.11233 11.3639 6.09416 11.3458C6.09416 11.3276 6.09416 11.3276 6.07599 11.3094C5.94879 10.8006 5.91244 10.5644 5.91244 10.0192C5.91244 7.11177 8.8926 3.85905 13.1993 3.85905C17.615 3.85905 20.1227 7.2208 20.7769 9.07431C20.7587 9.03797 20.7587 9.00163 20.7405 8.98345C19.523 5.33095 16.0704 2.71423 11.9999 2.71423C6.87554 2.71423 2.71423 6.87554 2.71423 11.9999C2.71423 16.5792 6.02147 20.5043 10.6007 20.5043C14.2532 20.5043 16.7246 18.4509 17.8512 15.6343C18.4691 14.0897 18.0329 12.2725 16.6155 11.3094Z" fill="#003763"/>
<path d="M20.776 9.18263C20.2308 7.36546 17.6868 3.78564 13.1439 3.78564C8.83721 3.78564 5.85706 7.03837 5.85706 9.94583C5.85706 10.491 5.8934 10.7272 6.0206 11.236C5.96609 11.018 5.92974 10.7817 5.92974 10.5818C5.92974 7.54718 8.96441 5.43927 12.0899 5.43927C16.3239 5.43927 19.7402 8.87371 19.7402 13.0895C19.7402 16.3968 17.8322 19.2679 15.0701 20.6489C18.6499 19.3588 21.1939 15.9243 21.1939 11.9084C21.1939 10.9634 21.0667 10.1094 20.776 9.18263Z" fill="#E4022D"/>
</g>
</g>
<defs>
<clipPath id="clip0_490_1301">
<rect x="2" y="2" width="20" height="20" rx="10" fill="white"/>
</clipPath>
<clipPath id="clip1_490_1301">
<rect width="18.5714" height="18.0081" fill="white" transform="translate(2.71423 2.71423)"/>
</clipPath>
</defs>
</svg>
