<svg width="24" height="24" viewBox="0 0 24 24" fill="none" xmlns="http://www.w3.org/2000/svg">
<path fill-rule="evenodd" clip-rule="evenodd" d="M12 20.5C16.6944 20.5 20.5 16.6944 20.5 12C20.5 7.30558 16.6944 3.5 12 3.5C7.30558 3.5 3.5 7.30558 3.5 12C3.5 16.6944 7.30558 20.5 12 20.5ZM12 22C17.5228 22 22 17.5228 22 12C22 6.47715 17.5228 2 12 2C6.47715 2 2 6.47715 2 12C2 17.5228 6.47715 22 12 22Z" fill="#AEB7BC"/>
<path fill-rule="evenodd" clip-rule="evenodd" d="M7.23657 11.3904C7.55199 11.075 8.06339 11.075 8.37882 11.3904L11.6096 14.6211C11.925 14.9366 11.925 15.448 11.6096 15.7634C11.2942 16.0788 10.7828 16.0788 10.4673 15.7634L7.23657 12.5326C6.92114 12.2172 6.92114 11.7058 7.23657 11.3904Z" fill="#AEB7BC"/>
<path fill-rule="evenodd" clip-rule="evenodd" d="M16.9941 9.23657C17.3096 9.55199 17.3096 10.0634 16.9941 10.3788L11.6095 15.7634C11.2941 16.0789 10.7827 16.0789 10.4673 15.7634C10.1519 15.448 10.1519 14.9366 10.4673 14.6212L15.8519 9.23657C16.1673 8.92114 16.6787 8.92114 16.9941 9.23657Z" fill="#AEB7BC"/>
</svg>
